<?xml version="1.0" encoding="UTF-8"?>
<!DOCTYPE svg PUBLIC "-//W3C//DTD SVG 1.1//EN" "http://www.w3.org/Graphics/SVG/1.1/DTD/svg11.dtd">
<svg xmlns="http://www.w3.org/2000/svg" version="1.1" width="500px" height="147px" style="shape-rendering:geometricPrecision; text-rendering:geometricPrecision; image-rendering:optimizeQuality; fill-rule:evenodd; clip-rule:evenodd" xmlns:xlink="http://www.w3.org/1999/xlink">
<g><path style="opacity:0.922" fill="#0eb2f9" d="M 277.5,13.5 C 277.5,17.5 277.5,21.5 277.5,25.5C 275.972,26.3092 274.306,26.9759 272.5,27.5C 272.817,23.2984 272.483,19.2984 271.5,15.5C 273.214,14.2616 275.214,13.595 277.5,13.5 Z"/></g>
<g><path style="opacity:0.972" fill="#0fabf9" d="M 277.5,13.5 C 279.167,13.5 280.833,13.5 282.5,13.5C 282.5,17.5 282.5,21.5 282.5,25.5C 280.833,25.5 279.167,25.5 277.5,25.5C 277.5,21.5 277.5,17.5 277.5,13.5 Z"/></g>
<g><path style="opacity:0.959" fill="#07d7fa" d="M 212.5,14.5 C 212.5,18.1667 212.5,21.8333 212.5,25.5C 212.158,26.3382 211.492,26.6716 210.5,26.5C 209.518,23.0381 209.185,19.3714 209.5,15.5C 210.391,14.8902 211.391,14.5569 212.5,14.5 Z"/></g>
<g><path style="opacity:0.93" fill="#08d1fa" d="M 212.5,14.5 C 213.5,14.5 214.5,14.5 215.5,14.5C 215.5,17.8333 215.5,21.1667 215.5,24.5C 214.791,25.404 213.791,25.7373 212.5,25.5C 212.5,21.8333 212.5,18.1667 212.5,14.5 Z"/></g>
<g><path style="opacity:0.994" fill="#09cafa" d="M 215.5,14.5 C 216.5,14.5 217.5,14.5 218.5,14.5C 219.268,17.907 218.934,21.2403 217.5,24.5C 216.833,24.5 216.167,24.5 215.5,24.5C 215.5,21.1667 215.5,17.8333 215.5,14.5 Z"/></g>
<g><path style="opacity:0.986" fill="#0ac4f9" d="M 218.5,14.5 C 219.5,14.5 220.5,14.5 221.5,14.5C 221.756,18.2693 221.423,21.9359 220.5,25.5C 219.209,25.7373 218.209,25.404 217.5,24.5C 218.934,21.2403 219.268,17.907 218.5,14.5 Z"/></g>
<g><path style="opacity:0.906" fill="#0bbff9" d="M 221.5,14.5 C 222.5,14.5 223.5,14.5 224.5,14.5C 224.5,18.1667 224.5,21.8333 224.5,25.5C 223.167,25.5 221.833,25.5 220.5,25.5C 221.423,21.9359 221.756,18.2693 221.5,14.5 Z"/></g>
<g><path style="opacity:0.946" fill="#0db8f9" d="M 224.5,14.5 C 225.5,14.5 226.5,14.5 227.5,14.5C 227.954,18.6067 227.954,22.6067 227.5,26.5C 226.609,25.8902 225.609,25.5569 224.5,25.5C 224.5,21.8333 224.5,18.1667 224.5,14.5 Z"/></g>
<g><path style="opacity:0.983" fill="#0eb1f9" d="M 227.5,14.5 C 228.391,15.1098 229.391,15.4431 230.5,15.5C 231.787,19.2684 231.787,22.9351 230.5,26.5C 229.5,26.5 228.5,26.5 227.5,26.5C 227.954,22.6067 227.954,18.6067 227.5,14.5 Z"/></g>
<g><path style="opacity:0.963" fill="#0db9f9" d="M 271.5,15.5 C 272.483,19.2984 272.817,23.2984 272.5,27.5C 270.716,27.8925 269.05,28.5592 267.5,29.5C 267.167,25.5 266.833,21.5 266.5,17.5C 267.78,16.0687 269.447,15.4021 271.5,15.5 Z"/></g>
<g><path style="opacity:0.941" fill="#04e4fa" d="M 206.5,16.5 C 206.5,20.8333 206.5,25.1667 206.5,29.5C 205.108,32.0067 204.108,34.6733 203.5,37.5C 202.614,31.3656 202.28,25.0322 202.5,18.5C 203.514,17.3263 204.847,16.6596 206.5,16.5 Z"/></g>
<g><path style="opacity:0.953" fill="#06ddfa" d="M 209.5,15.5 C 209.185,19.3714 209.518,23.0381 210.5,26.5C 209.205,27.4884 207.872,28.4884 206.5,29.5C 206.5,25.1667 206.5,20.8333 206.5,16.5C 207.391,15.8902 208.391,15.5569 209.5,15.5 Z"/></g>
<g><path style="opacity:0.915" fill="#11a6f9" d="M 232.5,15.5 C 234.306,16.0241 235.972,16.6908 237.5,17.5C 236.518,20.9619 236.185,24.6286 236.5,28.5C 235.833,28.1667 235.167,27.8333 234.5,27.5C 234.668,23.3425 234.002,19.3425 232.5,15.5 Z"/></g>
<g><path style="opacity:0.979" fill="#0cbffa" d="M 266.5,17.5 C 266.833,21.5 267.167,25.5 267.5,29.5C 266.609,30.1098 265.609,30.4431 264.5,30.5C 263.57,26.6002 263.237,22.6002 263.5,18.5C 264.391,17.8902 265.391,17.5569 266.5,17.5 Z"/></g>
<g><path style="opacity:1" fill="#11a0f9" d="M 284.5,13.5 C 286.621,13.3253 288.621,13.6586 290.5,14.5C 290.956,18.6781 290.956,23.0114 290.5,27.5C 288.95,26.5592 287.284,25.8925 285.5,25.5C 285.763,21.3998 285.43,17.3998 284.5,13.5 Z"/></g>
<g><path style="opacity:0.979" fill="#1492f9" d="M 296.5,17.5 C 297.872,18.5116 299.205,19.5116 300.5,20.5C 300.17,38.008 300.503,55.3414 301.5,72.5C 301.103,73.525 300.437,73.6917 299.5,73C 298.001,70.6721 296.334,68.5054 294.5,66.5C 295.429,65.6851 296.429,64.8518 297.5,64C 296.364,62.4702 295.364,61.1369 294.5,60C 296.857,58.78 296.524,57.9467 293.5,57.5C 295.456,51.6738 296.789,45.6738 297.5,39.5C 297.1,36.5344 296.1,33.8677 294.5,31.5C 296.379,31.6068 296.712,31.1068 295.5,30C 296.167,29.3333 296.833,28.6667 297.5,28C 297.5,26.6667 297.5,25.3333 297.5,24C 294.833,22.6667 294.833,21.3333 297.5,20C 296.748,19.3292 296.414,18.4959 296.5,17.5 Z"/></g>
<g><path style="opacity:0.966" fill="#03eafa" d="M 202.5,18.5 C 202.28,25.0322 202.614,31.3656 203.5,37.5C 203.5,40.1667 203.5,42.8333 203.5,45.5C 202.562,53.0923 202.562,60.759 203.5,68.5C 201.808,66.7952 200.475,64.7952 199.5,62.5C 199.531,48.1934 199.531,34.1934 199.5,20.5C 200.29,19.5987 201.29,18.9321 202.5,18.5 Z"/></g>
<g><path style="opacity:1" fill="#129ef9" d="M 237.5,17.5 C 238.5,17.5 239.5,17.5 240.5,17.5C 240.5,21.5 240.5,25.5 240.5,29.5C 239.167,29.1667 237.833,28.8333 236.5,28.5C 236.185,24.6286 236.518,20.9619 237.5,17.5 Z"/></g>
<g><path style="opacity:0.899" fill="#1492f9" d="M 243.5,18.5 C 244.609,18.5569 245.609,18.8902 246.5,19.5C 246.5,21.5 246.5,23.5 246.5,25.5C 245.833,26.8333 244.833,27.8333 243.5,28.5C 243.5,25.1667 243.5,21.8333 243.5,18.5 Z"/></g>
<g><path style="opacity:1" fill="#10abf9" d="M 230.5,15.5 C 231.167,15.5 231.833,15.5 232.5,15.5C 234.002,19.3425 234.668,23.3425 234.5,27.5C 232.901,27.7678 231.568,27.4345 230.5,26.5C 231.787,22.9351 231.787,19.2684 230.5,15.5 Z"/></g>
<g><path style="opacity:0.797" fill="#158bf9" d="M 246.5,19.5 C 252.852,20.9022 252.852,22.9022 246.5,25.5C 246.5,23.5 246.5,21.5 246.5,19.5 Z"/></g>
<g><path style="opacity:0.952" fill="#0bc4f9" d="M 263.5,18.5 C 263.237,22.6002 263.57,26.6002 264.5,30.5C 263.035,31.7368 261.368,32.7368 259.5,33.5C 259.5,29.5 259.5,25.5 259.5,21.5C 260.795,20.5116 262.128,19.5116 263.5,18.5 Z"/></g>
<g><path style="opacity:1" fill="#1397f9" d="M 291.5,14.5 C 293.368,15.2632 295.035,16.2632 296.5,17.5C 296.414,18.4959 296.748,19.3292 297.5,20C 294.833,21.3333 294.833,22.6667 297.5,24C 297.5,25.3333 297.5,26.6667 297.5,28C 296.833,28.6667 296.167,29.3333 295.5,30C 296.712,31.1068 296.379,31.6068 294.5,31.5C 294.167,30.8333 293.833,30.1667 293.5,29.5C 292.53,25.7986 292.53,22.2986 293.5,19C 292.418,17.6703 291.751,16.1703 291.5,14.5 Z"/></g>
<g><path style="opacity:0.968" fill="#02f1fa" d="M 199.5,20.5 C 199.531,34.1934 199.531,48.1934 199.5,62.5C 198.11,61.1007 197.11,59.4341 196.5,57.5C 196.895,46.5741 196.895,35.5741 196.5,24.5C 196.738,22.5956 197.738,21.2623 199.5,20.5 Z"/></g>
<g><path style="opacity:0.969" fill="#158cf9" d="M 300.5,20.5 C 303.231,22.9464 305.231,25.9464 306.5,29.5C 305.711,29.7828 305.044,30.2828 304.5,31C 305.059,38.5545 305.392,46.3878 305.5,54.5C 304.793,60.6609 303.459,66.6609 301.5,72.5C 300.503,55.3414 300.17,38.008 300.5,20.5 Z"/></g>
<g><path style="opacity:0.953" fill="#09cafa" d="M 259.5,21.5 C 259.5,25.5 259.5,29.5 259.5,33.5C 257.999,34.7515 256.332,35.7515 254.5,36.5C 254.605,32.694 254.272,29.0273 253.5,25.5C 255.205,23.8079 257.205,22.4746 259.5,21.5 Z"/></g>
<g><path style="opacity:1" fill="#10a6f9" d="M 282.5,13.5 C 283.167,13.5 283.833,13.5 284.5,13.5C 285.43,17.3998 285.763,21.3998 285.5,25.5C 284.5,25.5 283.5,25.5 282.5,25.5C 282.5,21.5 282.5,17.5 282.5,13.5 Z"/></g>
<g><path style="opacity:1" fill="#129bf9" d="M 290.5,14.5 C 290.833,14.5 291.167,14.5 291.5,14.5C 291.751,16.1703 292.418,17.6703 293.5,19C 292.53,22.2986 292.53,25.7986 293.5,29.5C 292.5,28.8333 291.5,28.1667 290.5,27.5C 290.956,23.0114 290.956,18.6781 290.5,14.5 Z"/></g>
<g><path style="opacity:1" fill="#1398f9" d="M 240.5,17.5 C 241.391,18.1098 242.391,18.4431 243.5,18.5C 243.5,21.8333 243.5,25.1667 243.5,28.5C 242.791,29.404 241.791,29.7373 240.5,29.5C 240.5,25.5 240.5,21.5 240.5,17.5 Z"/></g>
<g><path style="opacity:0.956" fill="#01f6fa" d="M 196.5,24.5 C 196.895,35.5741 196.895,46.5741 196.5,57.5C 194.707,55.5739 193.707,53.2406 193.5,50.5C 193.5,43.8333 193.5,37.1667 193.5,30.5C 193.461,27.911 194.461,25.911 196.5,24.5 Z"/></g>
<g><path style="opacity:0.926" fill="#08d1fa" d="M 253.5,25.5 C 254.272,29.0273 254.605,32.694 254.5,36.5C 252.95,37.4408 251.284,38.1075 249.5,38.5C 249.81,35.2869 249.477,32.2869 248.5,29.5C 249.945,27.9373 251.611,26.604 253.5,25.5 Z"/></g>
<g><path style="opacity:0.93" fill="#07d7fa" d="M 248.5,29.5 C 249.477,32.2869 249.81,35.2869 249.5,38.5C 248.486,39.6737 247.153,40.3404 245.5,40.5C 245.739,38.5328 245.406,36.6995 244.5,35C 245.582,33.6703 246.249,32.1703 246.5,30.5C 247.167,30.1667 247.833,29.8333 248.5,29.5 Z"/></g>
<g><path style="opacity:0.891" fill="#1687f9" d="M 306.5,29.5 C 308.938,38.0215 308.604,46.3548 305.5,54.5C 305.392,46.3878 305.059,38.5545 304.5,31C 305.044,30.2828 305.711,29.7828 306.5,29.5 Z"/></g>
<g><path style="opacity:0.786" fill="#00fcfb" d="M 193.5,30.5 C 193.5,37.1667 193.5,43.8333 193.5,50.5C 191.981,47.4744 191.315,44.1411 191.5,40.5C 191.315,36.8589 191.981,33.5256 193.5,30.5 Z"/></g>
<g><path style="opacity:0.87" fill="#04e3fa" d="M 241.5,34.5 C 240.592,37.4848 240.592,40.1515 241.5,42.5C 239.819,44.0075 237.819,45.0075 235.5,45.5C 235.5,43.5 235.5,41.5 235.5,39.5C 237.475,37.863 239.475,36.1964 241.5,34.5 Z"/></g>
<g><path style="opacity:0.845" fill="#06dcfa" d="M 246.5,30.5 C 246.249,32.1703 245.582,33.6703 244.5,35C 245.406,36.6995 245.739,38.5328 245.5,40.5C 244.486,41.6737 243.153,42.3404 241.5,42.5C 240.592,40.1515 240.592,37.4848 241.5,34.5C 243.167,33.1667 244.833,31.8333 246.5,30.5 Z"/></g>
<g><path style="opacity:0.874" fill="#03eafa" d="M 235.5,39.5 C 235.5,41.5 235.5,43.5 235.5,45.5C 234.486,46.6737 233.153,47.3404 231.5,47.5C 231.167,46.1667 230.833,44.8333 230.5,43.5C 232.142,42.197 233.809,40.8637 235.5,39.5 Z"/></g>
<g><path style="opacity:0.868" fill="#00fefb" d="M 307.5,101.5 C 303.245,99.6371 298.912,97.9704 294.5,96.5C 285.092,78.3543 276.259,60.0209 268,41.5C 280.056,55.2877 291.389,69.621 302,84.5C 305.547,89.64 307.38,95.3067 307.5,101.5 Z"/></g>
<g><path style="opacity:0.814" fill="#02f0fa" d="M 230.5,43.5 C 230.833,44.8333 231.167,46.1667 231.5,47.5C 230.035,48.7368 228.368,49.7368 226.5,50.5C 226.737,49.209 226.404,48.209 225.5,47.5C 227.142,46.197 228.809,44.8637 230.5,43.5 Z"/></g>
<g><path style="opacity:0.94" fill="#05e3fa" d="M 203.5,45.5 C 204.817,48.4279 206.15,51.4279 207.5,54.5C 206.833,60.1667 206.167,65.8333 205.5,71.5C 204.833,70.5 204.167,69.5 203.5,68.5C 202.562,60.759 202.562,53.0923 203.5,45.5 Z"/></g>
<g><path style="opacity:0.941" fill="#00fefb" d="M 5.5,46.5 C 17.5046,46.3335 29.5046,46.5001 41.5,47C 60.9822,54.465 67.8155,68.2983 62,88.5C 57.8301,98.0022 50.6634,103.836 40.5,106C 28.8381,106.5 17.1714,106.667 5.5,106.5C 5.5,86.5 5.5,66.5 5.5,46.5 Z M 21.5,59.5 C 26.5111,59.3341 31.5111,59.5007 36.5,60C 47.5263,66.0812 50.3596,74.9146 45,86.5C 43.8333,89 42,90.8333 39.5,92C 33.6208,93.4101 27.6208,93.9101 21.5,93.5C 21.5,82.1667 21.5,70.8333 21.5,59.5 Z"/></g>
<g><path style="opacity:0.945" fill="#00fefb" d="M 71.5,46.5 C 87.5,46.5 103.5,46.5 119.5,46.5C 119.797,50.7675 119.464,54.9341 118.5,59C 108.172,59.4998 97.8387,59.6665 87.5,59.5C 87.5,62.8333 87.5,66.1667 87.5,69.5C 97.1667,69.5 106.833,69.5 116.5,69.5C 116.5,73.8333 116.5,78.1667 116.5,82.5C 106.833,82.5 97.1667,82.5 87.5,82.5C 87.5,86.5 87.5,90.5 87.5,94.5C 98.5,94.5 109.5,94.5 120.5,94.5C 120.5,98.5 120.5,102.5 120.5,106.5C 104.167,106.5 87.8333,106.5 71.5,106.5C 71.5,86.5 71.5,66.5 71.5,46.5 Z"/></g>
<g><path style="opacity:0.929" fill="#00fefb" d="M 122.5,47.5 C 128.346,46.1834 134.346,46.1834 140.5,47.5C 145.432,61.1289 150.265,74.7955 155,88.5C 159.735,74.7955 164.568,61.1289 169.5,47.5C 175.167,46.1667 180.833,46.1667 186.5,47.5C 178.833,66.8333 171.167,86.1667 163.5,105.5C 157.537,106.496 151.537,106.829 145.5,106.5C 138.63,86.4422 130.963,66.7756 122.5,47.5 Z"/></g>
<g><path style="opacity:0.929" fill="#00fefb" d="M 310.5,46.5 C 315.833,46.5 321.167,46.5 326.5,46.5C 326.5,54.5 326.5,62.5 326.5,70.5C 334.5,70.5 342.5,70.5 350.5,70.5C 350.5,62.5 350.5,54.5 350.5,46.5C 356.167,46.5 361.833,46.5 367.5,46.5C 367.5,66.5 367.5,86.5 367.5,106.5C 361.833,106.5 356.167,106.5 350.5,106.5C 350.5,98.8333 350.5,91.1667 350.5,83.5C 342.5,83.5 334.5,83.5 326.5,83.5C 326.5,91.1667 326.5,98.8333 326.5,106.5C 321.167,106.5 315.833,106.5 310.5,106.5C 310.5,86.5 310.5,66.5 310.5,46.5 Z"/></g>
<g><path style="opacity:0.938" fill="#00fefb" d="M 377.5,46.5 C 382.833,46.5 388.167,46.5 393.5,46.5C 393.333,59.5043 393.5,72.5043 394,85.5C 397.12,92.974 402.62,95.474 410.5,93C 413.381,91.7494 415.214,89.5827 416,86.5C 417.425,73.2269 417.925,59.8935 417.5,46.5C 422.833,46.5 428.167,46.5 433.5,46.5C 433.667,59.5043 433.5,72.5043 433,85.5C 429.986,100.693 420.653,108.026 405,107.5C 393.158,107.915 384.491,102.915 379,92.5C 377.565,77.2246 377.065,61.8913 377.5,46.5 Z"/></g>
<g><path style="opacity:0.956" fill="#00fefb" d="M 443.5,46.5 C 456.171,46.3334 468.838,46.5001 481.5,47C 493.279,50.7214 496.779,58.2214 492,69.5C 490.316,71.3513 488.483,73.018 486.5,74.5C 496.329,80.1547 498.829,88.1547 494,98.5C 491.072,102.381 487.239,104.881 482.5,106C 469.504,106.5 456.504,106.667 443.5,106.5C 443.5,86.5 443.5,66.5 443.5,46.5 Z M 459.5,58.5 C 464.179,58.3342 468.845,58.5008 473.5,59C 478.408,61.8727 478.741,65.206 474.5,69C 469.599,70.3254 464.599,70.8254 459.5,70.5C 459.5,66.5 459.5,62.5 459.5,58.5 Z M 459.5,81.5 C 465.232,81.2832 470.899,81.7832 476.5,83C 481.077,88.1037 480.077,91.7703 473.5,94C 468.845,94.4992 464.179,94.6658 459.5,94.5C 459.5,90.1667 459.5,85.8333 459.5,81.5 Z"/></g>
<g><path style="opacity:0.811" fill="#01f8fa" d="M 225.5,47.5 C 226.404,48.209 226.737,49.209 226.5,50.5C 224.054,52.2332 221.387,53.0665 218.5,53C 220.996,51.3335 223.329,49.5002 225.5,47.5 Z"/></g>
<g><path style="opacity:0.929" fill="#06ddfa" d="M 207.5,54.5 C 208.5,56.5 209.5,58.5 210.5,60.5C 209.833,65.1667 209.167,69.8333 208.5,74.5C 207.167,73.8333 206.167,72.8333 205.5,71.5C 206.167,65.8333 206.833,60.1667 207.5,54.5 Z"/></g>
<g><path style="opacity:0.849" fill="#1498f9" d="M 293.5,57.5 C 296.524,57.9467 296.857,58.78 294.5,60C 295.364,61.1369 296.364,62.4702 297.5,64C 296.429,64.8518 295.429,65.6851 294.5,66.5C 293.053,65.8658 292.387,64.6991 292.5,63C 292.943,61.175 293.277,59.3417 293.5,57.5 Z"/></g>
<g><path style="opacity:0.925" fill="#07d7fa" d="M 210.5,60.5 C 211.5,62.5 212.5,64.5 213.5,66.5C 212.515,70.6344 212.182,74.9677 212.5,79.5C 210.413,78.4154 209.08,76.7488 208.5,74.5C 209.167,69.8333 209.833,65.1667 210.5,60.5 Z"/></g>
<g><path style="opacity:1" fill="#08d4fa" d="M 247.5,62.5 C 247.5,68.1667 247.5,73.8333 247.5,79.5C 246.209,79.7373 245.209,79.404 244.5,78.5C 244.5,73.5 244.5,68.5 244.5,63.5C 245.209,62.596 246.209,62.2627 247.5,62.5 Z"/></g>
<g><path style="opacity:0.96" fill="#04e6fa" d="M 244.5,63.5 C 244.5,68.5 244.5,73.5 244.5,78.5C 243.29,78.0679 242.29,77.4013 241.5,76.5C 242.483,72.7016 242.817,68.7016 242.5,64.5C 243.167,64.1667 243.833,63.8333 244.5,63.5 Z"/></g>
<g><path style="opacity:1" fill="#11a4f9" d="M 251.5,63.5 C 252.492,63.3284 253.158,63.6618 253.5,64.5C 253.5,69.1667 253.5,73.8333 253.5,78.5C 252.833,78.8333 252.167,79.1667 251.5,79.5C 251.5,74.1667 251.5,68.8333 251.5,63.5 Z"/></g>
<g><path style="opacity:0.928" fill="#08d1fa" d="M 213.5,66.5 C 214.441,68.0495 215.107,69.7162 215.5,71.5C 215.5,75.5 215.5,79.5 215.5,83.5C 213.738,82.7377 212.738,81.4044 212.5,79.5C 212.182,74.9677 212.515,70.6344 213.5,66.5 Z"/></g>
<g><path style="opacity:0.792" fill="#01f7fb" d="M 242.5,64.5 C 242.817,68.7016 242.483,72.7016 241.5,76.5C 238.697,72.198 239.031,68.198 242.5,64.5 Z"/></g>
<g><path style="opacity:0.827" fill="#168af8" d="M 255.5,66.5 C 258.167,69.5 258.167,72.5 255.5,75.5C 255.5,72.5 255.5,69.5 255.5,66.5 Z"/></g>
<g><path style="opacity:1" fill="#0bc1fa" d="M 247.5,62.5 C 248.167,62.5 248.833,62.5 249.5,62.5C 249.5,68.1667 249.5,73.8333 249.5,79.5C 248.833,79.5 248.167,79.5 247.5,79.5C 247.5,73.8333 247.5,68.1667 247.5,62.5 Z"/></g>
<g><path style="opacity:1" fill="#0eb5f9" d="M 249.5,62.5 C 250.492,62.3284 251.158,62.6618 251.5,63.5C 251.5,68.8333 251.5,74.1667 251.5,79.5C 250.833,79.5 250.167,79.5 249.5,79.5C 249.5,73.8333 249.5,68.1667 249.5,62.5 Z"/></g>
<g><path style="opacity:0.857" fill="#1590f9" d="M 200.5,73.5 C 199.391,73.5569 198.391,73.8902 197.5,74.5C 197.631,69.8108 198.631,69.4775 200.5,73.5 Z"/></g>
<g><path style="opacity:0.877" fill="#09cafa" d="M 215.5,71.5 C 217.083,73.6626 218.416,75.9959 219.5,78.5C 219.142,81.1568 218.808,84.1568 218.5,87.5C 217.026,86.5637 216.026,85.2303 215.5,83.5C 215.5,79.5 215.5,75.5 215.5,71.5 Z"/></g>
<g><path style="opacity:1" fill="#1398f9" d="M 253.5,64.5 C 254.5,64.8333 255.167,65.5 255.5,66.5C 255.5,69.5 255.5,72.5 255.5,75.5C 255.573,77.0269 254.906,78.0269 253.5,78.5C 253.5,73.8333 253.5,69.1667 253.5,64.5 Z"/></g>
<g><path style="opacity:0.881" fill="#1398f9" d="M 200.5,73.5 C 201.5,73.8333 202.167,74.5 202.5,75.5C 200.685,76.6298 198.685,77.2964 196.5,77.5C 196.263,76.209 196.596,75.209 197.5,74.5C 198.391,73.8902 199.391,73.5569 200.5,73.5 Z"/></g>
<g><path style="opacity:1" fill="#129ef9" d="M 202.5,75.5 C 203.167,75.5 203.5,75.8333 203.5,76.5C 200.995,78.0114 198.328,79.3447 195.5,80.5C 195.263,79.209 195.596,78.209 196.5,77.5C 198.685,77.2964 200.685,76.6298 202.5,75.5 Z"/></g>
<g><path style="opacity:0.956" fill="#0bc4fa" d="M 219.5,78.5 C 220.674,79.5137 221.34,80.847 221.5,82.5C 221.5,85.5 221.5,88.5 221.5,91.5C 220.026,90.5637 219.026,89.2303 218.5,87.5C 218.808,84.1568 219.142,81.1568 219.5,78.5 Z"/></g>
<g><path style="opacity:1" fill="#10a6f9" d="M 203.5,76.5 C 204.906,76.9731 205.573,77.9731 205.5,79.5C 202.009,81.0293 198.342,82.0293 194.5,82.5C 194.833,81.8333 195.167,81.1667 195.5,80.5C 198.328,79.3447 200.995,78.0114 203.5,76.5 Z"/></g>
<g><path style="opacity:1" fill="#0fabf9" d="M 205.5,79.5 C 206.338,79.8417 206.672,80.5084 206.5,81.5C 202.426,82.6357 198.426,83.969 194.5,85.5C 194.5,84.5 194.5,83.5 194.5,82.5C 198.342,82.0293 202.009,81.0293 205.5,79.5 Z"/></g>
<g><path style="opacity:0.895" fill="#0eb1f9" d="M 206.5,81.5 C 206.737,82.791 206.404,83.791 205.5,84.5C 201.5,85.8333 197.5,87.1667 193.5,88.5C 193.557,87.391 193.89,86.391 194.5,85.5C 198.426,83.969 202.426,82.6357 206.5,81.5 Z"/></g>
<g><path style="opacity:0.926" fill="#0cbffa" d="M 221.5,82.5 C 223.008,84.1815 224.008,86.1815 224.5,88.5C 224.5,90.5 224.5,92.5 224.5,94.5C 223.167,93.8333 222.167,92.8333 221.5,91.5C 221.5,88.5 221.5,85.5 221.5,82.5 Z"/></g>
<g><path style="opacity:0.981" fill="#0db8f9" d="M 205.5,84.5 C 205.768,86.099 205.434,87.4324 204.5,88.5C 204.265,87.9033 203.765,87.5699 203,87.5C 199.382,89.0602 195.882,90.7269 192.5,92.5C 192.833,91.1667 193.167,89.8333 193.5,88.5C 197.5,87.1667 201.5,85.8333 205.5,84.5 Z"/></g>
<g><path style="opacity:1" fill="#0cbef9" d="M 204.5,88.5 C 204.5,88.8333 204.5,89.1667 204.5,89.5C 200.698,91.3995 196.698,92.7328 192.5,93.5C 192.5,93.1667 192.5,92.8333 192.5,92.5C 195.882,90.7269 199.382,89.0602 203,87.5C 203.765,87.5699 204.265,87.9033 204.5,88.5 Z"/></g>
<g><path style="opacity:0.95" fill="#0bc4f9" d="M 204.5,89.5 C 204.737,90.791 204.404,91.791 203.5,92.5C 199.812,93.3405 196.312,94.6738 193,96.5C 192.601,96.2716 192.435,95.9382 192.5,95.5C 192.5,94.8333 192.5,94.1667 192.5,93.5C 196.698,92.7328 200.698,91.3995 204.5,89.5 Z"/></g>
<g><path style="opacity:0.793" fill="#0eb9fa" d="M 224.5,88.5 C 226.008,90.1815 227.008,92.1815 227.5,94.5C 227.5,95.8333 227.5,97.1667 227.5,98.5C 225.738,97.7377 224.738,96.4044 224.5,94.5C 224.5,92.5 224.5,90.5 224.5,88.5 Z"/></g>
<g><path style="opacity:0.902" fill="#00fefb" d="M 193.5,115.5 C 196.833,114.167 200.167,112.833 203.5,111.5C 206.252,116.297 210.419,118.964 216,119.5C 219.842,118.721 223.675,117.887 227.5,117C 244.85,107.491 262.517,98.8242 280.5,91C 264.911,105.593 247.911,118.259 229.5,129C 216.747,133.52 205.58,131.02 196,121.5C 194.878,119.593 194.045,117.593 193.5,115.5 Z"/></g>
<g><path style="opacity:0.921" fill="#09cbfa" d="M 203.5,92.5 C 203.5,93.5 203.5,94.5 203.5,95.5C 199.257,96.2476 195.257,97.5809 191.5,99.5C 191.232,97.901 191.566,96.5676 192.5,95.5C 192.435,95.9382 192.601,96.2716 193,96.5C 196.312,94.6738 199.812,93.3405 203.5,92.5 Z"/></g>
<g><path style="opacity:0.964" fill="#08d1fa" d="M 203.5,95.5 C 203.672,96.4916 203.338,97.1583 202.5,97.5C 198.942,99.1117 195.275,100.445 191.5,101.5C 191.5,100.833 191.5,100.167 191.5,99.5C 195.257,97.5809 199.257,96.2476 203.5,95.5 Z"/></g>
<g><path style="opacity:0.584" fill="#0eb3fb" d="M 227.5,94.5 C 229.79,97.0767 230.956,100.077 231,103.5C 229.824,101.804 228.657,100.138 227.5,98.5C 227.5,97.1667 227.5,95.8333 227.5,94.5 Z"/></g>
<g><path style="opacity:0.976" fill="#01f6fa" d="M 294.5,96.5 C 298.912,97.9704 303.245,99.6371 307.5,101.5C 307.5,101.833 307.5,102.167 307.5,102.5C 307.44,103.043 307.107,103.376 306.5,103.5C 302.91,101.868 299.243,100.534 295.5,99.5C 294.89,98.609 294.557,97.609 294.5,96.5 Z"/></g>
<g><path style="opacity:0.973" fill="#07d7fa" d="M 202.5,97.5 C 202.5,98.1667 202.5,98.8333 202.5,99.5C 198.952,101.353 195.285,103.019 191.5,104.5C 191.5,103.5 191.5,102.5 191.5,101.5C 195.275,100.445 198.942,99.1117 202.5,97.5 Z"/></g>
<g><path style="opacity:0.977" fill="#02f0fa" d="M 295.5,99.5 C 299.243,100.534 302.91,101.868 306.5,103.5C 307.107,103.376 307.44,103.043 307.5,102.5C 308.686,103.705 308.686,105.039 307.5,106.5C 303.667,104.444 299.667,102.778 295.5,101.5C 295.5,100.833 295.5,100.167 295.5,99.5 Z"/></g>
<g><path style="opacity:1" fill="#06ddfa" d="M 202.5,99.5 C 202.5,100.167 202.5,100.833 202.5,101.5C 199.12,103.74 195.454,105.407 191.5,106.5C 191.5,105.833 191.5,105.167 191.5,104.5C 195.285,103.019 198.952,101.353 202.5,99.5 Z"/></g>
<g><path style="opacity:0.949" fill="#03eafa" d="M 295.5,101.5 C 299.667,102.778 303.667,104.444 307.5,106.5C 307.5,107.167 307.5,107.833 307.5,108.5C 303.687,106.593 299.687,105.26 295.5,104.5C 295.5,103.5 295.5,102.5 295.5,101.5 Z"/></g>
<g><path style="opacity:0.953" fill="#05e3fa" d="M 202.5,101.5 C 202.5,102.5 202.5,103.5 202.5,104.5C 199.166,106.613 195.5,107.946 191.5,108.5C 191.5,107.833 191.5,107.167 191.5,106.5C 195.454,105.407 199.12,103.74 202.5,101.5 Z"/></g>
<g><path style="opacity:0.989" fill="#05e4fa" d="M 295.5,104.5 C 299.687,105.26 303.687,106.593 307.5,108.5C 307.5,109.167 307.5,109.833 307.5,110.5C 303.51,109.174 299.51,107.84 295.5,106.5C 295.5,105.833 295.5,105.167 295.5,104.5 Z"/></g>
<g><path style="opacity:0.905" fill="#03eafa" d="M 202.5,104.5 C 202.5,105.5 202.5,106.5 202.5,107.5C 199.162,108.836 195.829,110.169 192.5,111.5C 191.596,110.791 191.263,109.791 191.5,108.5C 195.5,107.946 199.166,106.613 202.5,104.5 Z"/></g>
<g><path style="opacity:0.945" fill="#02f0fa" d="M 202.5,107.5 C 202.5,108.167 202.5,108.833 202.5,109.5C 199.24,110.789 195.906,112.122 192.5,113.5C 192.5,112.833 192.5,112.167 192.5,111.5C 195.829,110.169 199.162,108.836 202.5,107.5 Z"/></g>
<g><path style="opacity:1" fill="#06ddfa" d="M 295.5,106.5 C 299.51,107.84 303.51,109.174 307.5,110.5C 306.89,111.391 306.557,112.391 306.5,113.5C 302.952,111.559 299.286,109.893 295.5,108.5C 295.5,107.833 295.5,107.167 295.5,106.5 Z"/></g>
<g><path style="opacity:0.955" fill="#07d7fa" d="M 295.5,108.5 C 299.286,109.893 302.952,111.559 306.5,113.5C 306.5,114.167 306.167,114.5 305.5,114.5C 301.878,113.18 298.212,111.847 294.5,110.5C 294.833,109.833 295.167,109.167 295.5,108.5 Z"/></g>
<g><path style="opacity:0.949" fill="#01f6fb" d="M 202.5,109.5 C 203.338,109.842 203.672,110.508 203.5,111.5C 200.167,112.833 196.833,114.167 193.5,115.5C 192.662,115.158 192.328,114.492 192.5,113.5C 195.906,112.122 199.24,110.789 202.5,109.5 Z"/></g>
<g><path style="opacity:0.962" fill="#08d1fa" d="M 294.5,110.5 C 298.212,111.847 301.878,113.18 305.5,114.5C 305.5,115.167 305.5,115.833 305.5,116.5C 301.731,115.449 298.065,114.116 294.5,112.5C 294.5,111.833 294.5,111.167 294.5,110.5 Z"/></g>
<g><path style="opacity:0.953" fill="#09cafa" d="M 294.5,112.5 C 298.065,114.116 301.731,115.449 305.5,116.5C 305.167,117.5 304.5,118.167 303.5,118.5C 299.731,117.449 296.065,116.116 292.5,114.5C 292.833,113.5 293.5,112.833 294.5,112.5 Z"/></g>
<g><path style="opacity:0.947" fill="#0bc4fa" d="M 292.5,114.5 C 296.065,116.116 299.731,117.449 303.5,118.5C 303.672,119.492 303.338,120.158 302.5,120.5C 298.592,119.231 294.925,117.565 291.5,115.5C 291.5,114.833 291.833,114.5 292.5,114.5 Z"/></g>
<g><path style="opacity:0.982" fill="#0cbefa" d="M 291.5,115.5 C 294.925,117.565 298.592,119.231 302.5,120.5C 302.167,121.5 301.5,122.167 300.5,122.5C 296.606,121.281 292.939,119.614 289.5,117.5C 289.833,116.5 290.5,115.833 291.5,115.5 Z"/></g>
<g><path style="opacity:0.905" fill="#0db8fa" d="M 289.5,117.5 C 292.939,119.614 296.606,121.281 300.5,122.5C 300.5,123.167 300.167,123.5 299.5,123.5C 294.886,121.962 290.219,120.628 285.5,119.5C 286.514,118.326 287.847,117.66 289.5,117.5 Z"/></g>
<g><path style="opacity:1" fill="#1398f9" d="M 255.5,116.5 C 266.963,119.872 277.963,124.205 288.5,129.5C 288.167,129.5 287.833,129.5 287.5,129.5C 285.473,129.662 283.473,129.495 281.5,129C 272.44,125.044 263.44,121.211 254.5,117.5C 254.5,116.833 254.833,116.5 255.5,116.5 Z"/></g>
<g><path style="opacity:0.969" fill="#168cf9" d="M 253.5,117.5 C 253.369,118.376 253.702,119.043 254.5,119.5C 261.985,122.655 269.318,125.988 276.5,129.5C 273.721,129.721 271.054,129.388 268.5,128.5C 262.656,125.656 256.656,122.989 250.5,120.5C 251.167,119.167 252.167,118.167 253.5,117.5 Z"/></g>
<g><path style="opacity:1" fill="#1492f9" d="M 253.5,117.5 C 253.833,117.5 254.167,117.5 254.5,117.5C 263.44,121.211 272.44,125.044 281.5,129C 283.473,129.495 285.473,129.662 287.5,129.5C 283.833,130.833 280.167,130.833 276.5,129.5C 269.318,125.988 261.985,122.655 254.5,119.5C 253.702,119.043 253.369,118.376 253.5,117.5 Z"/></g>
<g><path style="opacity:0.874" fill="#1786f9" d="M 250.5,120.5 C 256.656,122.989 262.656,125.656 268.5,128.5C 261.252,127.439 254.252,125.605 247.5,123C 248.373,121.955 249.373,121.122 250.5,120.5 Z"/></g>
<g><path style="opacity:1" fill="#129ff9" d="M 267.5,117.5 C 275.936,121.02 284.27,124.686 292.5,128.5C 291.292,129.234 289.959,129.567 288.5,129.5C 277.963,124.205 266.963,119.872 255.5,116.5C 255.811,115.522 256.478,114.855 257.5,114.5C 261.02,115.26 264.353,116.26 267.5,117.5 Z"/></g>
<g><path style="opacity:1" fill="#10a6f9" d="M 267.5,117.5 C 270.727,117.676 273.727,118.343 276.5,119.5C 282.658,122.069 288.992,124.402 295.5,126.5C 294.71,127.401 293.71,128.068 292.5,128.5C 284.27,124.686 275.936,121.02 267.5,117.5 Z"/></g>
<g><path style="opacity:0.857" fill="#0fb1f9" d="M 281.5,119.5 C 282.833,119.5 284.167,119.5 285.5,119.5C 290.219,120.628 294.886,121.962 299.5,123.5C 298.833,124.833 297.833,125.833 296.5,126.5C 291.882,123.358 286.882,121.024 281.5,119.5 Z"/></g>
<g><path style="opacity:1" fill="#0fabf9" d="M 276.5,119.5 C 278.167,119.5 279.833,119.5 281.5,119.5C 286.882,121.024 291.882,123.358 296.5,126.5C 296.167,126.5 295.833,126.5 295.5,126.5C 288.992,124.402 282.658,122.069 276.5,119.5 Z"/></g>
</svg>
